<svg width="161" height="35" viewBox="0 0 161 35" fill="none" xmlns="http://www.w3.org/2000/svg">
<path d="M27.16 9.385V34H17.485V31.66C16.585 32.59 15.535 33.295 14.335 33.775C13.135 34.225 11.86 34.45 10.51 34.45C7.39 34.45 4.885 33.505 2.995 31.615C1.105 29.695 0.16 26.815 0.16 22.975V9.385H10.33V21.22C10.33 22.9 10.6 24.1 11.14 24.82C11.68 25.54 12.475 25.9 13.525 25.9C14.515 25.9 15.34 25.51 16 24.73C16.66 23.92 16.99 22.66 16.99 20.95V9.385H27.16ZM47.1959 34L43.8209 28.735L40.0409 34H29.0159L38.3309 21.805L29.2859 9.385H40.7609L44.2709 14.605L47.9609 9.385H58.6259L49.5809 21.355L58.8509 34H47.1959ZM101.298 9.385L92.7475 34H82.8475L79.1125 22.615L75.2425 34H65.3425L56.7925 9.385H66.4225L70.6525 22.39L75.0625 9.385H83.7025L87.9775 22.525L92.3875 9.385H101.298ZM128.789 21.67C128.789 21.82 128.744 22.615 128.654 24.055H111.554C111.914 24.985 112.514 25.705 113.354 26.215C114.194 26.695 115.244 26.935 116.504 26.935C117.584 26.935 118.484 26.8 119.204 26.53C119.954 26.26 120.764 25.795 121.634 25.135L126.944 30.49C124.544 33.13 120.959 34.45 116.189 34.45C113.219 34.45 110.609 33.91 108.359 32.83C106.109 31.72 104.369 30.19 103.139 28.24C101.909 26.29 101.294 24.1 101.294 21.67C101.294 19.21 101.894 17.02 103.094 15.1C104.324 13.15 105.989 11.635 108.089 10.555C110.219 9.475 112.604 8.935 115.244 8.935C117.734 8.935 119.999 9.43 122.039 10.42C124.109 11.41 125.744 12.865 126.944 14.785C128.174 16.705 128.789 19 128.789 21.67ZM115.334 15.865C114.284 15.865 113.414 16.15 112.724 16.72C112.034 17.29 111.584 18.1 111.374 19.15H119.294C119.084 18.13 118.634 17.335 117.944 16.765C117.254 16.165 116.384 15.865 115.334 15.865ZM148.423 8.935C150.583 8.935 152.563 9.46 154.363 10.51C156.193 11.53 157.633 13.015 158.683 14.965C159.763 16.885 160.303 19.12 160.303 21.67C160.303 24.22 159.763 26.47 158.683 28.42C157.633 30.37 156.193 31.87 154.363 32.92C152.563 33.94 150.583 34.45 148.423 34.45C145.393 34.45 143.143 33.625 141.673 31.975V34H131.998V0.609998H142.168V11.05C143.608 9.64 145.693 8.935 148.423 8.935ZM145.993 26.53C147.163 26.53 148.123 26.11 148.873 25.27C149.623 24.4 149.998 23.2 149.998 21.67C149.998 20.14 149.623 18.955 148.873 18.115C148.123 17.275 147.163 16.855 145.993 16.855C144.823 16.855 143.863 17.275 143.113 18.115C142.363 18.955 141.988 20.14 141.988 21.67C141.988 23.2 142.363 24.4 143.113 25.27C143.863 26.11 144.823 26.53 145.993 26.53Z" fill="#008CD1"/>
</svg>
